<?xml version="1.0" encoding="utf-8"?>
<!-- Generator: Adobe Illustrator 24.3.0, SVG Export Plug-In . SVG Version: 6.00 Build 0)  -->
<svg version="1.1" id="Layer_1" xmlns="http://www.w3.org/2000/svg" xmlns:xlink="http://www.w3.org/1999/xlink" x="0px" y="0px"
	 viewBox="0 0 1152 270" style="enable-background:new 0 0 1152 270;" xml:space="preserve">
<style type="text/css">
	.st0{clip-path:url(#SVGID_2_);fill:#EEEEEE;}
	.st1{clip-path:url(#SVGID_2_);}
	.st2{fill:#99644C;}
	.st3{fill:#3D281E;}
	.st4{fill:#744C3A;}
	.st5{fill:#FFFFFF;}
	.st6{fill:#993F21;}
	.st7{fill:#E2E2E2;}
	.st8{fill:#CBCBCB;}
	.st9{fill:#757575;}
	.st10{fill:#5C3C2E;}
	.st11{fill:#574291;}
	.st12{fill:#453473;}
</style>
<g>
	<g>
		<defs>
			<rect id="SVGID_1_" x="-6.519" y="-3.032" width="1164.946" height="273.034"/>
		</defs>
		<clipPath id="SVGID_2_">
			<use xlink:href="#SVGID_1_"  style="overflow:visible;"/>
		</clipPath>
		<path class="st0" d="M1041.959,272.449c0,0,24.995-16.119-3.571-44.686L933.611,122.986C905.045,94.42,866.276,78.3,825.774,78.3
			H558.271h-36.626H327.089c-40.503,0-79.271,16.119-107.837,44.686L114.373,227.763c-28.566,28.566-3.571,44.686-3.571,44.686
			l411.228,1.133l35.803,0.133l484.705,2.479l0.111-3.745H1041.959z"/>
		<g class="st1">
			<path class="st2" d="M552.898,226.62c0-1.011,0-1.921,0-2.933c-1.214,0.404-2.326,1.112-3.337,2.022
				c-1.112,1.112-3.742,3.843-4.854,5.056c-0.405,0.404-0.708,0.809-0.91,1.315c-0.404,0.708-1.517,2.933-1.517,2.933l-1.82,4.652
				c0.404,0.404,1.112,0.607,1.921,0.607c2.022,0,3.944-1.011,4.955-2.73l1.416-2.225l4.348-4.348
				C552.898,229.654,552.898,228.137,552.898,226.62z"/>
			<path class="st2" d="M550.066,231.474c-0.202,1.719-0.405,5.663-0.607,7.483c0,0.607,0,1.213,0.101,1.719
				c0.202,0.809,0.506,2.225,0.506,2.225l0.809,1.719c0,0,0,2.124,0,2.225c0.708,2.528,4.652-0.506,4.449-3.539
				c-0.303-3.034-0.506-4.753-0.506-4.753l3.034-10.517L550.066,231.474z"/>
			<path class="st2" d="M554.92,233.901c0.303,1.517,1.112,4.955,1.416,6.472c0.101,0.506,0.303,1.011,0.607,1.416
				c0.303,0.506,1.011,1.719,1.011,1.719l1.112,0.91l0.708,2.124c1.214,2.124,3.843-1.517,2.831-4.146
				c-1.011-2.629-1.618-3.944-1.618-3.944l-0.101-9.708L554.92,233.901z"/>
			<path class="st3" d="M569.078,228.744l-11.326,6.674l-15.27-9.101l19.416-9.91L569.078,228.744z"/>
			<path class="st3" d="M564.224,227.429c-1.315,1.011-2.933,1.416-4.551,1.112c-0.91-0.101-1.719-0.202-1.82-0.303l-4.753,2.326
				l6.169,2.933L564.224,227.429z"/>
			<path class="st4" d="M641.381,259.789l-62.697-5.562c-5.966-0.506-11.326-3.742-14.663-8.596c0,0,0-0.101-0.101-0.101
				c-2.326-3.438-4.146-7.483-8.191-8.899l2.022-8.191c0,0,0,0,2.933,0.404c2.933,0.404,5.461-3.135,3.64-3.438
				c-1.82-0.303-13.449-2.326-13.449-2.326l-6.067,3.438l-2.629,2.427c-0.607,0.607,1.416-2.022-0.809-0.607
				c-2.73,1.82-5.663,1.517-5.865,0.202l2.73-3.438c0.91-1.011,2.225-2.427,2.73-3.135c0.405-0.404,0.809-0.809,1.315-1.011
				c1.416-0.91,4.652-2.73,6.067-3.539c1.112-0.607,2.427-1.011,3.742-1.112l15.775-0.809c2.629-0.101,5.056,1.213,6.27,3.438
				l6.876,12.135c1.921,3.337,5.056,5.764,8.596,6.876c2.124,0.607,4.449,0.809,6.674,0.404l51.674-4.854L641.381,259.789z"/>
			<path class="st4" d="M555.729,236.53c0,0-5.966-2.022-11.528-3.843c-2.326-0.809-3.135-2.427-3.034-3.742
				c0.101-1.719,2.022-2.831,4.652-2.427c4.449,0.708,12.034,1.82,12.034,1.82L555.729,236.53z"/>
			<path class="st4" d="M564.122,227.53c-1.719,1.315-2.831,1.315-4.449,1.112c-0.91-0.101-3.539-0.506-3.539-0.506l-3.034,2.629
				l6.169,2.933L564.122,227.53z"/>
			<path class="st5" d="M551.381,248.261c0.202,0.91,1.214-0.91,0.809-2.933c-0.405-2.022-1.921-2.427-1.921-2.427
				S551.078,247.351,551.381,248.261z"/>
			<path class="st5" d="M560.078,247.452c0.404,0.708,0.708-1.011-0.101-2.427c-0.809-1.517-2.124-1.416-2.124-1.416
				S559.673,246.845,560.078,247.452z"/>
			<path class="st5" d="M539.752,240.07c-0.405,0.91,1.517,0,2.427-1.82c0.91-1.82,0-3.135,0-3.135S540.257,239.16,539.752,240.07z"
				/>
			<path class="st4" d="M535.1,228.44c-0.607,0.708,1.416,0.506,2.831-1.011c1.517-1.517,0.91-2.933,0.91-2.933
				S535.707,227.631,535.1,228.44z"/>
			<path class="st4" d="M541.875,229.452c-0.91-0.506-1.214-1.213-1.112-1.82c0.101-0.607,0.607-1.112,1.719-1.213
				c2.326-0.202,4.247,0.202,4.753,0.809c0.303,0.303,0.303,1.011,0.202,1.82c-0.202,0.708-0.506,1.416-0.91,1.517
				C545.819,230.867,543.999,230.564,541.875,229.452z"/>
			<path class="st6" d="M655.943,253.115h-375.27V269.8h375.27V253.115z"/>
			<path class="st7" d="M538.842,253.216h-92.225c-1.618,0-3.034-1.213-3.438-2.831l-18-84.438c-0.303-1.213,0-2.427,0.809-3.236
				l0.809-0.91l96.27,8.393c1.315,0.101,2.528,1.315,2.831,2.933l14.764,77.36C541.066,251.8,540.055,253.216,538.842,253.216z"/>
			<path class="st5" d="M539.954,253.216h-91.922c-1.618,0-3.034-1.213-3.337-2.831l-18.303-86.36
				c-0.405-1.719,0.809-3.135,2.427-2.933l95.562,9.202c1.315,0.101,2.528,1.315,2.831,2.933l14.764,77.259
				C542.078,251.8,541.167,253.216,539.954,253.216z"/>
			<path d="M536.921,242.8h-88.989c-0.91,0-1.719-0.708-1.921-1.618l-15.169-71.393c-0.101-0.506,0.202-0.91,0.708-0.91
				l92.124,8.191c0.809,0.101,1.416,0.708,1.618,1.618l12.135,63.303C537.629,242.395,537.326,242.8,536.921,242.8z"/>
			<path class="st7" d="M538.639,247.856h-92.225v2.427c0,1.618,6.573,2.933,6.573,2.933h82.719c1.618,0,2.933-1.315,2.933-2.933
				V247.856z"/>
			<path class="st5" d="M616.708,247.856h-103.45v2.427c0,1.618-1.315,2.933-2.933,2.933h-3.034h103.551h3.034
				c1.618,0,2.933-1.315,2.933-2.933v-2.427H616.708z"/>
			<path class="st8" d="M443.584,226.418c-0.303-29.832,24.775-53.494,54.506-51.573l-66.539-5.865c-0.506,0-0.809,0.404-0.708,0.91
				l12.742,60.169L443.584,226.418L443.584,226.418z"/>
			<path class="st5" d="M406.471,217.924v10.214c0,2.528,1.517,4.854,3.843,5.865l6.371,2.73c1.315,0.506,2.124,1.82,2.124,3.236
				c0,3.337,0.809,6.573,2.326,9.506l1.921,3.843h29.832l1.921-3.843c1.517-2.933,2.326-6.27,2.326-9.506v-28.214h-32.36h-6.067
				h-6.067C409.302,211.654,406.471,214.485,406.471,217.924z M410.617,217.924c0-1.213,0.91-2.124,2.124-2.124h4.247
				c1.011,0,1.82,0.809,1.82,1.82v12.742c0,1.315-1.315,2.124-2.528,1.618l-4.449-1.82c-0.809-0.303-1.315-1.112-1.315-2.022
				v-10.214H410.617z"/>
			<path class="st7" d="M418.918,221.597h38.326v-3.539h-38.326V221.597z"/>
			<path class="st7" d="M418.918,228.926h38.326v-3.539h-38.326V228.926z"/>
			<path class="st8" d="M445.909,239.867v-28.214h11.326v28.214c0,3.337-0.809,6.573-2.326,9.506l-1.921,3.843h-11.326l1.921-3.843
				C445.1,246.44,445.909,243.204,445.909,239.867z"/>
			<path class="st9" d="M445.889,221.597h11.326v-3.539h-11.326V221.597z"/>
			<path class="st9" d="M445.889,228.926h11.326v-3.539h-11.326V228.926z"/>
			<path d="M280.673,269.8h327.54l34.888-10.517H280.673V269.8z"/>
			<path class="st2" d="M540.258,238.047l-14.663,0.91c-1.315,0.202-2.528,0.607-3.64,1.416c-1.315,0.91-4.348,3.135-5.764,4.045
				c-0.405,0.303-0.809,0.708-1.214,1.112c-0.506,0.607-2.022,2.427-2.022,2.427l-2.629,4.247c0.303,0.506,0.91,0.809,1.719,0.91
				c2.022,0.404,4.045-0.303,5.36-1.82l1.719-1.719l6.573-4.551l12.64-0.202L540.258,238.047z"/>
			<path class="st2" d="M509.718,252.306c-0.607,0.809,1.416,0.303,2.73-1.315c1.315-1.618,0.506-3.034,0.506-3.034L509.718,252.306
				z"/>
			<path class="st2" d="M528.325,251.8l-1.719,0.91c-1.416,0.809-3.034,0.809-4.449,0c-0.506-0.303-0.91-0.708-1.011-1.112
				l2.933-2.427c0,0,1.618-1.112,2.124-1.416c0.303-0.202,0.708-0.404,1.112-0.607c1.112-0.303,8.697-1.213,10.517-1.416
				c0.202,0,0.405-0.202,0.405-0.506c0-0.202-0.202-0.404-0.405-0.404h-3.034l0.101-3.236l0.405-3.438l-2.022-7.382l6.27-3.742
				l2.022,0.404c1.315,0.202,2.528,0.708,3.64,1.416l24.067,15.876c2.124,1.416,4.652,2.124,7.18,2.124l65.225,0.101l-29.023,22.652
				l-36.506-4.652c-10.315,0-20.124-3.944-27.607-11.022l-1.214-1.112c-1.618-1.517-3.843-2.326-6.067-2.124L528.325,251.8z"/>
			<path class="st2" d="M520.639,251.598c-0.607,0.404,1.011,0.607,2.326-0.303c1.315-0.91,1.112-2.124,1.112-2.124L520.639,251.598
				z"/>
			<path class="st2" d="M535.808,232.081l-15.169,0.101c-1.315,0.202-2.528,0.607-3.64,1.416c-1.315,0.91-4.348,3.135-5.764,4.045
				c-0.405,0.303-0.809,0.708-1.214,1.112c-0.506,0.607-2.022,2.629-2.022,2.629l-2.629,4.247c0.303,0.506,0.91,0.809,1.719,0.91
				c2.022,0.404,4.045-0.303,5.36-1.82l1.719-1.921l6.573-4.551h14.562L535.808,232.081z"/>
			<path class="st2" d="M504.763,245.834c-0.607,0.809,1.416,0.303,2.73-1.315c1.315-1.618,0.506-3.034,0.506-3.034L504.763,245.834
				z"/>
			<path class="st2" d="M541.571,227.631l-18-3.337c-0.708-0.101-1.416-0.101-2.124,0l-14.056,2.124l-4.753,1.618
				c-0.101,0.506,0.202,1.213,0.809,1.82c1.315,1.517,3.337,2.225,5.36,1.921l11.326-1.315c0.607-0.101,1.214,0,1.82,0.101
				l13.854,3.438L541.571,227.631z"/>
			<path class="st2" d="M507.392,226.418c0,0-0.303,1.618-2.326,2.022c-2.022,0.404-3.944-0.404-2.933-0.708L507.392,226.418z"/>
			<path class="st3" d="M629.044,53.294c-0.506-12.64,6.978-27.202,20.427-33.775l-1.011,34.685L629.044,53.294z"/>
			<path class="st3" d="M732.089,40.249c-5.461,5.461-22.652,6.674-32.562-3.236c-9.91-9.91-8.697-27.101-3.236-32.562
				c5.461-5.461,17.899-1.82,27.708,8.09C733.808,22.451,737.55,34.788,732.089,40.249z"/>
			<path d="M723.999,12.541c7.079,7.079,8.494,17.292,3.034,22.652c-5.461,5.461-20.427,8.899-27.506,1.82
				c9.91,9.91,27.101,8.697,32.562,3.236C737.55,34.788,733.909,22.451,723.999,12.541z"/>
			<path d="M717.325,60.777c0,10.618-5.056,25.685-17.09,25.685c-15.472-0.607-2.831-17.393-2.831-17.393
				S717.325,54.406,717.325,60.777z"/>
			<path class="st2" d="M632.851,91.756c2.299-0.697,3.597-3.125,2.899-5.423c-0.697-2.299-3.125-3.596-5.423-2.899
				c-2.297,0.697-3.596,3.125-2.899,5.423C628.125,91.156,630.553,92.453,632.851,91.756z"/>
			<path class="st2" d="M649.572,116.294c3.518,0,6.371-2.853,6.371-6.371c0-3.518-2.853-6.371-6.371-6.371
				c-3.518,0-6.371,2.853-6.371,6.371C643.201,113.441,646.054,116.294,649.572,116.294z"/>
			<path class="st5" d="M640.875,100.215c1.921-0.607,3.944,0.506,4.449,2.427c0.607,1.921-0.506,3.944-2.427,4.449l-1.416-2.629
				l-2.427,1.416c-0.303-0.404-0.506-0.809-0.708-1.213C637.943,102.744,639.055,100.822,640.875,100.215z"/>
			<path class="st2" d="M634.909,97.586l4.854,3.236l12.236,15.067c0,0,11.225-5.157,14.966-7.483
				c6.371-3.843,8.494-6.876,12.742-13.146l5.663-8.292l-17.292-55.011l-21.742,2.528c-8.697,1.011-17.596,24.169-17.596,24.169
				c-0.708,2.427-0.506,5.056,0.607,7.382l2.022,3.944c0.506,0.91,0.506,2.022,0.202,3.034l-4.045,12.539
				c0,0,4.854,2.831,5.157,2.933l-1.618,3.438l3.944,0.506l0.303,0.91C635.819,94.755,635.617,96.272,634.909,97.586z"/>
			<path class="st3" d="M649.471,19.519c6.978-3.742,15.067-3.843,23.461-3.64c25.079,0.607,45.101,19.921,44.393,45
				c0,11.225-7.18,17.798-11.326,22.348c-7.18,7.989-73.719-40.247-73.719-40.247C634.201,32.968,640.471,24.373,649.471,19.519z"/>
			<path class="st2" d="M713.381,59.564c0,23.056-18.708,41.663-41.663,41.663l-43.18-41.663c0-23.056,20.124-41.663,43.18-41.663
				C694.673,17.901,713.381,36.507,713.381,59.564z"/>
			<path class="st2" d="M643.506,111.744l-0.405-1.416c-0.607-1.921-2.022-3.64-3.843-4.449l1.416-3.539l11.427-3.438l2.831,9.405
				L643.506,111.744z"/>
			<path class="st4" d="M632.888,90.406l3.034-0.202C634.303,88.586,630.461,88.283,632.888,90.406z"/>
			<path class="st3" d="M642.493,70.182c0.506,1.719-0.506,3.64-2.225,4.146l-5.966,1.82l1.517-1.517
				c0.708-0.708,0.91-1.719,0.607-2.629L642.493,70.182z"/>
			<path class="st4" d="M642.493,70.182l-2.022-1.416c-0.809-0.607-1.82-0.91-2.831-0.91c-1.112,0-2.022,0.708-2.326,1.719
				l1.112,2.528L642.493,70.182z"/>
			<path class="st3" d="M636.426,64.418c1.82-0.404,3.742-0.506,5.461-0.202l-1.416-1.517c-0.809-0.91-2.427-1.921-10.416,0.506
				c-1.214,0.404-0.405,2.022,1.416,2.73C633.797,65.024,633.999,64.822,636.426,64.418z"/>
			<path class="st10" d="M635.111,98.395c0.708,1.315,2.73,2.933,4.652,2.427l5.764-2.933l-4.45,0.607
				c-1.112,0.101-2.124-0.202-2.933-0.708c-0.809-0.506-1.921-0.607-2.933-0.303l-0.303,0.101
				C634.909,97.485,634.909,97.991,635.111,98.395z"/>
			<path class="st4" d="M639.864,105.676l-0.607,0.202c-0.303-0.404-0.506-0.809-0.708-1.213c-0.506-1.517,0-3.135,1.315-3.944
				l4.247-2.427l1.517-0.506l-2.326,4.854C642.696,104.159,641.381,105.272,639.864,105.676z"/>
			<path class="st2" d="M664.741,109.62c2.528-1.719,5.764-0.303,7.18,4.348c1.416,4.753,6.371,18.809,6.371,18.809
				s12.337-18.303,33.978-25.787c-5.966-8.899-12.843-13.854-6.27-23.865l-9.101-25.685l-28.719-25.483l-6.573,37.921
				L664.741,109.62z"/>
			<path class="st3" d="M632.583,41.867c0,0,10.011,25.483,36.405,12.135l2.831-28.214L632.583,41.867z"/>
			<path class="st3" d="M671.517,15.878c-31.753,0-37.517,24.371-38.832,25.989h5.258c2.933,0,5.865,1.213,7.888,3.236l23.258,8.899
				l2.831-0.708c0,0-1.921-1.719,4.753,14.562c6.674,16.281,23.157,18.101,29.73,15.371
				C722.989,61.687,712.674,15.878,671.517,15.878z"/>
			<path class="st2" d="M677.28,56.125c4.348,6.978,2.629,15.27-1.112,16.989l-4.146-13.551L677.28,56.125z"/>
			<path class="st3" d="M655.336,57.339c3.742,1.213,4.854,4.955,8.09,4.348c1.719-0.303,2.124-1.921,2.629-3.64
				c0.506-1.618,1.112-3.236,3.034-4.146c3.944-1.719-7.18-2.73-7.18-2.73L655.336,57.339z"/>
			<path d="M707.112,29.732c8.798,26.697-6.876,56.73-20.933,50.056c7.281,5.056,15.978,5.258,20.326,3.438
				C716.01,70.89,716.01,44.901,707.112,29.732z"/>
			<path d="M709.641,34.991c5.865,14.36,5.36,34.382-1.618,45.91c4.146-4.449,9.202-10.618,9.202-20.124
				C717.528,51.069,714.697,42.272,709.641,34.991z"/>
			<path class="st5" d="M674.044,227.935h-17.191V269.8h17.191V227.935z"/>
			<path class="st11" d="M666.561,118.215c0,0,30.034-13.753,52.281-3.843c8.292,13.652,32.562,27.506,31.854,68.056
				s-19.214,87.674-19.214,87.674h-64.719L666.561,118.215z"/>
			<path class="st11" d="M666.561,118.215c16.685-11.933,30.641-22.449,45.708-20.528c4.753,0.303,6.573,16.685,6.573,16.685"/>
			<path class="st12" d="M627.224,253.216c0,0-1.618-12.539,8.09-20.225v20.225H627.224z"/>
			<path class="st11" d="M632.179,247.148c0,0,0.506-120.135,34.382-129.034c22.348-5.157,44.596,24.371,30.438,65.326
				c-14.157,40.955-30.236,86.36-30.236,86.36h-61.281c0,0,1.719-19.517,14.258-22.652H632.179z"/>
			<path class="st12" d="M666.763,269.8h22.449v-66.742c0-3.135-4.551-3.742-5.258-0.708C677.28,228.44,666.763,269.8,666.763,269.8
				z"/>
			<path d="M666.763,269.8h102.843v-11.225c0-6.876-5.562-12.539-12.539-12.539h-54.506c-13.551,0-25.989,7.18-32.966,18.809
				L666.763,269.8z"/>
			<path class="st6" d="M715.505,246.036h-12.944c-13.551,0-25.989,7.18-32.966,18.809l-2.933,4.955h12.944l2.933-4.955
				C689.516,253.216,702.055,246.036,715.505,246.036z"/>
			<path class="st2" d="M671.92,65.934c3.518,0,6.371-2.853,6.371-6.371c0-3.518-2.853-6.371-6.371-6.371
				c-3.519,0-6.371,2.853-6.371,6.371C665.55,63.082,668.401,65.934,671.92,65.934z"/>
		</g>
	</g>
</g>
</svg>
